<?xml version="1.0" standalone="no"?><!DOCTYPE svg PUBLIC "-//W3C//DTD SVG 1.1//EN" "http://www.w3.org/Graphics/SVG/1.1/DTD/svg11.dtd"><svg t="1691772678766" class="icon" viewBox="0 0 1024 1024" version="1.1" xmlns="http://www.w3.org/2000/svg" p-id="4526" width="64" height="64" xmlns:xlink="http://www.w3.org/1999/xlink"><path d="M921.546583 595.030042 284.71039 595.030042c-5.337565 0-9.358135 4.855588-8.362458 10.099009l12.615319 66.466808c1.032516 5.438872 5.786797 9.375531 11.322883 9.375531l576.984037 0c20.721951 0 38.304398 16.246009 38.82833 36.96182 0.564865 22.301935-15.931854 39.170115-38.055734 39.170115L274.43128 757.103324l0 0c-32.692586 2.076288-54.267974-13.908778-60.535725-41.821501L97.28572 167.008688c-2.487657-9.335622-27.343765-16.529465-45.812395-15.896038-22.113647 0-38.60525-16.86204-38.047548-39.163975 0.518816-20.714787 18.09717-36.96489 38.819121-36.96489l91.806939 0c13.849426-0.060375 28.444842 19.587104 32.499182 43.494607l77.030397 395.261229 629.89613-0.275269c21.75549 0 43.505863-46.949288 43.505863-74.141604L926.983409 357.750917c0-21.74935-16.313547-43.505863-43.505863-43.505863L341.379041 314.245054c-21.601994 0-40.142256-17.245779-39.750329-38.844703 0.38681-21.363564 16.633842-37.287231 43.4987-37.287231l0 0 581.855998 0c44.865837 0 81.573877 36.70804 81.573877 81.573877l0 193.778378C1003.113297 556.961004 970.486202 595.030042 921.546583 595.030042L921.546583 595.030042 921.546583 595.030042 921.546583 595.030042zM323.370899 814.544571c32.634258 0 59.817364 27.183106 59.817364 65.25112 0 38.061874-27.183106 65.253166-59.817364 65.253166-32.627095 0-59.81941-27.192316-59.81941-65.253166C263.551488 841.727677 290.74278 814.544571 323.370899 814.544571L323.370899 814.544571 323.370899 814.544571 323.370899 814.544571zM780.164552 814.544571c32.626072 0 59.817364 27.183106 59.817364 65.25112 0 32.628118-27.192316 65.253166-59.817364 65.253166-32.636305 0-59.81941-27.192316-59.81941-65.253166C719.740368 840.839447 747.110739 814.544571 780.164552 814.544571L780.164552 814.544571 780.164552 814.544571 780.164552 814.544571zM780.164552 814.544571" fill="#999999" p-id="4527"></path></svg>